<svg width="222" height="512" viewBox="0 0 222 512" fill="currentColor" xmlns="http://www.w3.org/2000/svg">
    <path fill-rule="evenodd" clip-rule="evenodd" d="M28.325 72.4186C43.9685 72.4186 56.65 54.6383 56.65 32.7052C56.65 10.7721 43.9685 0 28.325 0C12.6815 0 2.69256e-06 10.7721 2.69256e-06 32.7052C2.69256e-06 54.6383 12.6815 72.4186 28.325 72.4186ZM105.124 36.5013C105.124 52.7899 97.9332 65.9943 89.0632 65.9943C80.1932 65.9943 73.0026 52.7899 73.0026 36.5013C73.0026 20.2127 80.1932 12.2644 89.0632 12.2644C97.9332 12.2644 105.124 20.2127 105.124 36.5013ZM135.785 91.1072C144.655 91.1072 151.845 76.9876 151.845 59.5701C151.845 42.1526 144.655 36.5013 135.785 36.5013C126.915 36.5013 119.724 42.1526 119.724 59.5701C119.724 76.9876 126.915 91.1072 135.785 91.1072ZM189.223 87.3111C189.223 103.277 182.032 116.22 173.162 116.22C164.292 116.22 157.102 103.277 157.102 87.3111C157.102 72.3044 163.454 72.3511 171.583 72.4109C172.102 72.4147 172.629 72.4186 173.162 72.4186C173.695 72.4186 174.222 72.4147 174.742 72.4109C182.87 72.3511 189.223 72.3044 189.223 87.3111ZM32.3672 375.401C4.80139 458.332 28.7657 487.825 40.5435 492.206C76.7528 518.136 101.379 513.133 109.166 507.39C154.635 478.238 159.578 446.461 163.625 420.442C164.734 413.309 165.777 406.609 167.568 400.514C212.888 246.333 221.344 193.895 206.989 184.719C177.788 130.522 157.056 113.663 150.339 112.008C117.401 79.7701 81.5223 76.9668 67.7004 79.5949C39.4338 79.5949 24.3856 86.9925 20.3948 90.6913C-17.8586 148.217 8.13032 204.186 15.1386 213.92C52.5287 289.323 50.6688 305.205 47.7446 330.176C47.3802 333.288 46.9992 336.541 46.6757 340.068L32.3672 375.401ZM205.283 150.677C214.153 150.677 221.344 139.434 221.344 125.565C221.344 111.695 214.153 108.336 205.283 108.336C196.413 108.336 189.223 111.695 189.223 125.565C189.223 139.434 196.413 150.677 205.283 150.677ZM37.3971 98.2019C34.5245 97.2145 31.3953 98.7427 30.4079 101.615C29.4205 104.488 30.9487 107.617 33.8213 108.604L84.9582 126.182C87.8308 127.17 90.96 125.642 91.9474 122.769C92.9348 119.896 91.4066 116.767 88.534 115.78L37.3971 98.2019ZM35.4976 246.639C36.485 243.766 39.6142 242.238 42.4868 243.226L112.37 267.247C115.243 268.235 116.771 271.364 115.784 274.237C114.796 277.109 111.667 278.637 108.794 277.65L38.911 253.628C36.0384 252.641 34.5102 249.512 35.4976 246.639ZM58.4068 278.341C55.5342 277.353 52.405 278.882 51.4176 281.754C50.4302 284.627 51.9584 287.756 54.831 288.743L82.2391 298.165C85.1117 299.152 88.2409 297.624 89.2283 294.751C90.2158 291.879 88.6875 288.75 85.8149 287.762L58.4068 278.341ZM59.952 314.331C60.9395 311.458 64.0686 309.93 66.9412 310.917L90.367 318.97C93.2396 319.957 94.7678 323.086 93.7804 325.959C92.7929 328.832 89.6638 330.36 86.7912 329.372L63.3654 321.32C60.4928 320.333 58.9646 317.203 59.952 314.331ZM164.63 285.412C161.758 284.425 158.628 285.953 157.641 288.826C156.654 291.698 158.182 294.827 161.054 295.815L176.559 301.144C179.431 302.132 182.56 300.603 183.548 297.731C184.535 294.858 183.007 291.729 180.134 290.742L164.63 285.412ZM149.193 315.2C150.181 312.327 153.31 310.799 156.182 311.786L171.688 317.116C174.561 318.104 176.089 321.233 175.102 324.105C174.114 326.978 170.985 328.506 168.113 327.519L152.607 322.189C149.734 321.201 148.206 318.072 149.193 315.2ZM147.718 337.826C144.845 336.839 141.716 338.367 140.729 341.24C139.741 344.112 141.27 347.241 144.142 348.229L159.648 353.559C162.521 354.546 165.65 353.018 166.637 350.145C167.625 347.273 166.096 344.144 163.224 343.156L147.718 337.826ZM114.805 392.818C116.69 387.334 122.663 384.417 128.148 386.302L150.815 394.094C156.299 395.979 159.217 401.953 157.332 407.437C155.447 412.921 149.473 415.838 143.989 413.953L121.321 406.161C115.837 404.276 112.919 398.303 114.805 392.818ZM20.0523 121.883C17.1797 120.895 14.0506 122.424 13.0631 125.296C12.0757 128.169 13.6039 131.298 16.4765 132.285L43.5107 141.578C46.3832 142.566 49.5124 141.037 50.4998 138.165C51.4873 135.292 49.959 132.163 47.0864 131.176L20.0523 121.883ZM144.349 172.231C145.337 169.359 148.466 167.83 151.338 168.818L178.373 178.111C181.245 179.098 182.773 182.227 181.786 185.1C180.798 187.972 177.669 189.501 174.797 188.513L147.763 179.22C144.89 178.233 143.362 175.104 144.349 172.231ZM67.8234 139.033C64.9508 138.045 61.8216 139.574 60.8342 142.446C59.8468 145.319 61.375 148.448 64.2476 149.435L84.4985 156.396C87.3711 157.384 90.5003 155.856 91.4877 152.983C92.4751 150.111 90.9469 146.981 88.0743 145.994L67.8234 139.033ZM102.884 157.631C103.871 154.758 107 153.23 109.873 154.217L130.124 161.178C132.997 162.166 134.525 165.295 133.537 168.168C132.55 171.04 129.421 172.568 126.548 171.581L106.297 164.62C103.425 163.632 101.896 160.503 102.884 157.631ZM17.5976 150.129C14.725 149.142 11.5959 150.67 10.6084 153.543C9.62101 156.415 11.1492 159.544 14.0218 160.532L22.7278 163.524C25.6004 164.512 28.7296 162.984 29.717 160.111C30.7044 157.238 29.1762 154.109 26.3036 153.122L17.5976 150.129ZM38.0574 162.887C39.0448 160.014 42.174 158.486 45.0466 159.474L53.7526 162.466C56.6251 163.454 58.1534 166.583 57.1659 169.455C56.1785 172.328 53.0494 173.856 50.1768 172.869L41.4708 169.876C38.5982 168.889 37.07 165.76 38.0574 162.887ZM75.4157 169.986C72.5432 168.998 69.414 170.527 68.4266 173.399C67.4391 176.272 68.9674 179.401 71.84 180.388L80.5459 183.381C83.4185 184.368 86.5477 182.84 87.5351 179.968C88.5225 177.095 86.9943 173.966 84.1217 172.978L75.4157 169.986ZM19.4994 186.795C20.4868 183.922 23.616 182.394 26.4886 183.381L148.639 225.369C151.511 226.357 153.039 229.486 152.052 232.358C151.064 235.231 147.935 236.759 145.063 235.772L22.9128 193.784C20.0402 192.796 18.512 189.667 19.4994 186.795ZM195.705 275.722L31.155 219.159L29.2046 224.834L193.755 281.396L195.705 275.722ZM55.0229 336.464L168.151 375.35L166.2 381.024L53.0724 342.138L55.0229 336.464ZM23.945 428.671C23.945 431.08 24.0717 433.458 24.3189 435.801L36.484 400.411C36.8467 399.356 36.1531 398.161 34.9347 397.742C33.7163 397.323 32.4346 397.839 32.0719 398.894L24.3333 421.407C24.0767 423.793 23.945 426.217 23.945 428.671ZM45.9651 401.533C43.7991 400.789 41.5204 401.706 40.8756 403.582L27.8863 441.37C27.2415 443.246 28.4747 445.37 30.6407 446.115C32.8067 446.859 35.0853 445.942 35.7302 444.066L48.7194 406.278C49.3643 404.402 48.1311 402.278 45.9651 401.533ZM73.7216 414.873C74.3664 412.997 76.6451 412.079 78.8111 412.824C80.9771 413.569 82.2102 415.693 81.5654 417.569L68.5762 455.357C67.9313 457.233 65.6527 458.15 63.4867 457.405C61.3207 456.661 60.0875 454.536 60.7323 452.66L73.7216 414.873ZM91.067 417.037C90.2548 416.758 89.4003 417.102 89.1585 417.805L74.7098 459.839C74.4679 460.542 74.9304 461.339 75.7426 461.618C76.5549 461.897 77.4094 461.553 77.6512 460.85L92.0999 418.816C92.3417 418.113 91.8793 417.316 91.067 417.037ZM98.7443 421.812C99.1071 420.757 100.389 420.241 101.607 420.66C102.826 421.079 103.519 422.274 103.156 423.329L89.1456 464.089C88.7829 465.144 87.5012 465.66 86.2828 465.241C85.0644 464.822 84.3707 463.627 84.7335 462.572L98.7443 421.812ZM55.405 405.965C55.6065 405.379 56.3186 405.092 56.9955 405.325C57.6723 405.558 58.0577 406.222 57.8562 406.808L43.2615 449.266C43.06 449.852 42.3479 450.139 41.6711 449.906C40.9942 449.673 40.6088 449.01 40.8103 448.423L55.405 405.965ZM63.3686 407.516C62.6917 407.283 61.9796 407.57 61.7781 408.156L47.1834 450.614C46.9819 451.2 47.3673 451.864 48.0442 452.097C48.721 452.33 49.4331 452.043 49.6346 451.457L64.2293 408.999C64.4308 408.412 64.0454 407.748 63.3686 407.516ZM68.1512 410.347C68.3527 409.76 69.0648 409.474 69.7417 409.706C70.4185 409.939 70.8039 410.603 70.6024 411.189L56.0077 453.647C55.8062 454.234 55.0941 454.52 54.4173 454.288C53.7404 454.055 53.355 453.391 53.5565 452.805L68.1512 410.347Z" fill="black"/>
</svg>
